<svg width="72" height="72" viewBox="0 0 72 72" fill="none" xmlns="http://www.w3.org/2000/svg">
<path d="M61.0349 56.793C61.6093 56.5851 62.1059 56.2056 62.4574 55.706C62.8088 55.2064 62.9983 54.6109 62.9999 54V51C63.0005 50.606 62.9231 50.2157 62.7723 49.8517C62.6214 49.4877 62.4 49.1571 62.1209 48.879L56.9999 43.758V30C56.9999 20.349 50.4449 12.219 41.5649 9.774C40.6859 7.56 38.5379 6 35.9999 6C33.4619 6 31.3139 7.56 30.4349 9.774C26.4659 10.866 23.0459 13.158 20.3969 16.155L11.1209 6.879L6.87891 11.121L60.8789 65.121L65.1209 60.879L61.0349 56.793V56.793ZM35.9999 66C37.8578 66.0023 39.6703 65.4258 41.1854 64.3505C42.7005 63.2752 43.8429 61.7546 44.4539 60H27.5459C28.1569 61.7546 29.2993 63.2752 30.8144 64.3505C32.3295 65.4258 34.142 66.0023 35.9999 66V66ZM14.9999 30V43.758L9.87891 48.879C9.59978 49.1571 9.37842 49.4877 9.22756 49.8517C9.0767 50.2157 8.99934 50.606 8.99991 51V54C8.99991 54.7957 9.31598 55.5587 9.87859 56.1213C10.4412 56.6839 11.2043 57 11.9999 57H44.6369L15.2039 27.567C15.1109 28.371 14.9999 29.172 14.9999 30Z" fill="#21262D"/>
</svg>
