<svg width="124" height="124" viewBox="0 0 124 124" fill="none" xmlns="http://www.w3.org/2000/svg">
<path d="M62 124C96.2417 124 124 96.2417 124 62C124 27.7583 96.2417 0 62 0C27.7583 0 0 27.7583 0 62C0 96.2417 27.7583 124 62 124Z" fill="#21262D"/>
<path d="M96.7976 50.4525C94.6586 50.4525 92.9226 48.7165 92.9226 46.5775C92.9226 42.3072 89.4506 38.8275 85.1726 38.8275C80.8946 38.8275 77.4226 42.3072 77.4226 46.5775C77.4226 48.7165 75.6866 50.4525 73.5476 50.4525C71.4086 50.4525 69.6726 48.7165 69.6726 46.5775C69.6726 38.0292 76.6244 31.0775 85.1726 31.0775C93.7209 31.0775 100.673 38.0292 100.673 46.5775C100.673 48.7242 98.9366 50.4525 96.7976 50.4525Z" fill="#070A11"/>
<path d="M50.2976 50.4525C48.1586 50.4525 46.4226 48.7165 46.4226 46.5775C46.4226 42.3072 42.9429 38.8275 38.6726 38.8275C34.4024 38.8275 30.9226 42.3072 30.9226 46.5775C30.9226 48.7165 29.1866 50.4525 27.0476 50.4525C24.9086 50.4525 23.1726 48.7165 23.1726 46.5775C23.1726 38.0292 30.1244 31.0775 38.6726 31.0775C47.2208 31.0775 54.1726 38.0292 54.1726 46.5775C54.1726 48.7242 52.4366 50.4525 50.2976 50.4525Z" fill="#070A11"/>
<path d="M106.005 71.3697C105.268 70.401 104.129 69.8275 102.92 69.8275H20.9252C19.7085 69.8275 18.5692 70.3932 17.8407 71.362C17.0967 72.3385 16.8642 73.5862 17.1897 74.7565C22.793 94.6662 41.1915 108.577 61.915 108.577C82.6385 108.577 101.037 94.6662 106.64 74.7565C106.973 73.5862 106.741 72.3385 106.005 71.3697Z" fill="#070A11"/>
</svg>
